<svg width="140" height="140" viewBox="0 0 140 140" fill="none" xmlns="http://www.w3.org/2000/svg">
<path d="M0 61.18C0 39.5394 0 28.719 4.27829 20.483C7.88356 13.5425 13.5425 7.88356 20.483 4.27829C28.719 0 39.5394 0 61.18 0H78.82C100.461 0 111.281 0 119.517 4.27829C126.457 7.88356 132.116 13.5425 135.722 20.483C140 28.719 140 39.5394 140 61.18V78.82C140 100.461 140 111.281 135.722 119.517C132.116 126.457 126.457 132.116 119.517 135.722C111.281 140 100.461 140 78.82 140H61.18C39.5394 140 28.719 140 20.483 135.722C13.5425 132.116 7.88356 126.457 4.27829 119.517C0 111.281 0 100.461 0 78.82V61.18Z" fill="#FF2D55"/>
<path d="M58.9282 52.3906C54.4221 47.8698 47.1164 47.8698 42.6103 52.3906L23.3795 71.6842C18.8735 76.205 18.8735 83.5347 23.3795 88.0555C27.8856 92.5762 35.1913 92.5762 39.6974 88.0555L50.7692 76.9474L61.8411 88.0555C66.3471 92.5762 73.6529 92.5762 78.1589 88.0555L89.2308 76.9474L100.303 88.0555C104.809 92.5762 112.114 92.5762 116.62 88.0555C121.127 83.5347 121.127 76.205 116.62 71.6842L97.3897 52.3906C92.8836 47.8698 85.5779 47.8698 81.0718 52.3906L70 63.4986L58.9282 52.3906Z" fill="white"/>
</svg>
